<mxfile host="app.diagrams.net" agent="Mozilla/5.0 (Macintosh; Intel Mac OS X 10_15_7) AppleWebKit/537.36 (KHTML, like Gecko) Chrome/136.0.0.0 Safari/537.36" version="27.0.6">
  <diagram name="Page-1" id="8psTu5joOEkHxSPbt8DS">
    <mxGraphModel dx="2102" dy="1302" grid="1" gridSize="10" guides="1" tooltips="1" connect="1" arrows="1" fold="1" page="1" pageScale="1" pageWidth="827" pageHeight="1169" math="0" shadow="0">
      <root>
        <mxCell id="0" />
        <mxCell id="1" parent="0" />
        <mxCell id="pzHLP5PFSMqDfCKK6MuQ-40" value="&lt;span style=&quot;text-wrap-mode: wrap;&quot;&gt;[10:0]width&lt;/span&gt;" style="text;html=1;align=center;verticalAlign=middle;resizable=0;points=[];autosize=1;strokeColor=none;fillColor=none;" parent="1" vertex="1">
          <mxGeometry x="750" y="690" width="80" height="30" as="geometry" />
        </mxCell>
        <mxCell id="pzHLP5PFSMqDfCKK6MuQ-41" value="&lt;span style=&quot;text-wrap-mode: wrap;&quot;&gt;[9:0]height&lt;/span&gt;" style="text;html=1;align=center;verticalAlign=middle;resizable=0;points=[];autosize=1;strokeColor=none;fillColor=none;" parent="1" vertex="1">
          <mxGeometry x="749.9999999999998" y="724.08" width="80" height="30" as="geometry" />
        </mxCell>
        <mxCell id="pzHLP5PFSMqDfCKK6MuQ-47" value="" style="edgeStyle=orthogonalEdgeStyle;rounded=0;orthogonalLoop=1;jettySize=auto;html=1;strokeWidth=3;" parent="1" edge="1">
          <mxGeometry relative="1" as="geometry">
            <mxPoint x="2701" y="738.2399999999999" as="targetPoint" />
            <mxPoint x="2539" y="738.1899999999999" as="sourcePoint" />
            <Array as="points">
              <mxPoint x="2588" y="738.1899999999995" />
            </Array>
          </mxGeometry>
        </mxCell>
        <mxCell id="pzHLP5PFSMqDfCKK6MuQ-48" value="&lt;span style=&quot;text-wrap-mode: wrap;&quot;&gt;bbox_valid&lt;/span&gt;" style="text;html=1;align=center;verticalAlign=middle;resizable=0;points=[];autosize=1;strokeColor=none;fillColor=none;" parent="1" vertex="1">
          <mxGeometry x="2587" y="709.4399999999999" width="80" height="30" as="geometry" />
        </mxCell>
        <mxCell id="pzHLP5PFSMqDfCKK6MuQ-49" value="" style="edgeStyle=orthogonalEdgeStyle;rounded=0;orthogonalLoop=1;jettySize=auto;html=1;strokeWidth=3;" parent="1" edge="1">
          <mxGeometry relative="1" as="geometry">
            <mxPoint x="2701" y="768.8699999999999" as="targetPoint" />
            <mxPoint x="2539" y="768.8199999999999" as="sourcePoint" />
            <Array as="points">
              <mxPoint x="2588" y="768.8199999999995" />
            </Array>
          </mxGeometry>
        </mxCell>
        <mxCell id="pzHLP5PFSMqDfCKK6MuQ-50" value="&lt;span style=&quot;text-wrap-mode: wrap;&quot;&gt;[5:0]bbox_label&lt;/span&gt;" style="text;html=1;align=center;verticalAlign=middle;resizable=0;points=[];autosize=1;strokeColor=none;fillColor=none;" parent="1" vertex="1">
          <mxGeometry x="2561" y="738.8199999999999" width="100" height="30" as="geometry" />
        </mxCell>
        <mxCell id="pzHLP5PFSMqDfCKK6MuQ-51" value="" style="edgeStyle=orthogonalEdgeStyle;rounded=0;orthogonalLoop=1;jettySize=auto;html=1;strokeWidth=3;" parent="1" edge="1">
          <mxGeometry relative="1" as="geometry">
            <mxPoint x="2704" y="586.72" as="targetPoint" />
            <mxPoint x="2542" y="586.6700000000001" as="sourcePoint" />
            <Array as="points">
              <mxPoint x="2591" y="586.6699999999996" />
            </Array>
          </mxGeometry>
        </mxCell>
        <mxCell id="pzHLP5PFSMqDfCKK6MuQ-52" value="&lt;span style=&quot;text-wrap-mode: wrap;&quot;&gt;[10:0]bbox_min_x&lt;/span&gt;" style="text;html=1;align=center;verticalAlign=middle;resizable=0;points=[];autosize=1;strokeColor=none;fillColor=none;" parent="1" vertex="1">
          <mxGeometry x="2566" y="560.0000000000001" width="120" height="30" as="geometry" />
        </mxCell>
        <mxCell id="pzHLP5PFSMqDfCKK6MuQ-53" value="" style="edgeStyle=orthogonalEdgeStyle;rounded=0;orthogonalLoop=1;jettySize=auto;html=1;strokeWidth=3;" parent="1" edge="1">
          <mxGeometry relative="1" as="geometry">
            <mxPoint x="2703" y="625.94" as="targetPoint" />
            <mxPoint x="2541" y="625.8900000000001" as="sourcePoint" />
            <Array as="points">
              <mxPoint x="2590" y="625.8899999999996" />
            </Array>
          </mxGeometry>
        </mxCell>
        <mxCell id="pzHLP5PFSMqDfCKK6MuQ-54" value="&lt;span style=&quot;text-wrap-mode: wrap;&quot;&gt;[9:0]bbox_min_y&lt;/span&gt;" style="text;html=1;align=center;verticalAlign=middle;resizable=0;points=[];autosize=1;strokeColor=none;fillColor=none;" parent="1" vertex="1">
          <mxGeometry x="2571" y="596.5200000000001" width="110" height="30" as="geometry" />
        </mxCell>
        <mxCell id="pzHLP5PFSMqDfCKK6MuQ-56" value="" style="edgeStyle=orthogonalEdgeStyle;rounded=0;orthogonalLoop=1;jettySize=auto;html=1;strokeWidth=3;" parent="1" edge="1">
          <mxGeometry relative="1" as="geometry">
            <mxPoint x="2701" y="665.05" as="targetPoint" />
            <mxPoint x="2539" y="665" as="sourcePoint" />
            <Array as="points">
              <mxPoint x="2588" y="664.9999999999995" />
            </Array>
          </mxGeometry>
        </mxCell>
        <mxCell id="pzHLP5PFSMqDfCKK6MuQ-57" value="&lt;span style=&quot;text-wrap-mode: wrap;&quot;&gt;[10:0]bbox_max_x&lt;/span&gt;" style="text;html=1;align=center;verticalAlign=middle;resizable=0;points=[];autosize=1;strokeColor=none;fillColor=none;" parent="1" vertex="1">
          <mxGeometry x="2566" y="635" width="120" height="30" as="geometry" />
        </mxCell>
        <mxCell id="pzHLP5PFSMqDfCKK6MuQ-58" value="" style="edgeStyle=orthogonalEdgeStyle;rounded=0;orthogonalLoop=1;jettySize=auto;html=1;strokeWidth=3;" parent="1" edge="1">
          <mxGeometry relative="1" as="geometry">
            <mxPoint x="2701" y="704.9299999999998" as="targetPoint" />
            <mxPoint x="2539" y="704.8799999999999" as="sourcePoint" />
            <Array as="points">
              <mxPoint x="2588" y="704.8799999999994" />
            </Array>
          </mxGeometry>
        </mxCell>
        <mxCell id="pzHLP5PFSMqDfCKK6MuQ-59" value="&lt;span style=&quot;text-wrap-mode: wrap;&quot;&gt;[9:0]bbox_max_y&lt;/span&gt;" style="text;html=1;align=center;verticalAlign=middle;resizable=0;points=[];autosize=1;strokeColor=none;fillColor=none;" parent="1" vertex="1">
          <mxGeometry x="2572" y="674.8799999999999" width="110" height="30" as="geometry" />
        </mxCell>
        <mxCell id="EjdUyEd99-lyi4bKZ8Xp-1" value="&lt;span style=&quot;font-size: 24px;&quot;&gt;Labler&lt;/span&gt;" style="rounded=0;whiteSpace=wrap;html=1;" vertex="1" parent="1">
          <mxGeometry x="1025" y="350" width="360" height="290" as="geometry" />
        </mxCell>
        <mxCell id="EjdUyEd99-lyi4bKZ8Xp-2" value="" style="edgeStyle=orthogonalEdgeStyle;rounded=0;orthogonalLoop=1;jettySize=auto;html=1;strokeWidth=3;" edge="1" parent="1">
          <mxGeometry relative="1" as="geometry">
            <mxPoint x="2227" y="719" as="targetPoint" />
            <mxPoint x="1225" y="719.5400000000001" as="sourcePoint" />
            <Array as="points">
              <mxPoint x="1274" y="719.5399999999996" />
            </Array>
          </mxGeometry>
        </mxCell>
        <mxCell id="EjdUyEd99-lyi4bKZ8Xp-3" value="motion_detected" style="text;html=1;align=center;verticalAlign=middle;resizable=0;points=[];autosize=1;strokeColor=none;fillColor=none;" vertex="1" parent="1">
          <mxGeometry x="750" y="520" width="110" height="30" as="geometry" />
        </mxCell>
        <mxCell id="EjdUyEd99-lyi4bKZ8Xp-5" value="[5:0]left_label" style="text;html=1;align=center;verticalAlign=middle;resizable=0;points=[];autosize=1;strokeColor=none;fillColor=none;" vertex="1" parent="1">
          <mxGeometry x="1180" y="660" width="90" height="30" as="geometry" />
        </mxCell>
        <mxCell id="EjdUyEd99-lyi4bKZ8Xp-6" value="" style="edgeStyle=orthogonalEdgeStyle;rounded=0;orthogonalLoop=1;jettySize=auto;html=1;strokeWidth=3;" edge="1" parent="1">
          <mxGeometry relative="1" as="geometry">
            <mxPoint x="1024" y="547.0600000000001" as="targetPoint" />
            <mxPoint x="760" y="547" as="sourcePoint" />
            <Array as="points">
              <mxPoint x="911" y="547.0099999999996" />
            </Array>
          </mxGeometry>
        </mxCell>
        <mxCell id="EjdUyEd99-lyi4bKZ8Xp-7" value="[5:0]top_label" style="text;html=1;align=center;verticalAlign=middle;resizable=0;points=[];autosize=1;strokeColor=none;fillColor=none;" vertex="1" parent="1">
          <mxGeometry x="1030" y="660" width="100" height="30" as="geometry" />
        </mxCell>
        <mxCell id="EjdUyEd99-lyi4bKZ8Xp-8" value="" style="edgeStyle=orthogonalEdgeStyle;rounded=0;orthogonalLoop=1;jettySize=auto;html=1;strokeWidth=3;entryX=0.75;entryY=0;entryDx=0;entryDy=0;" edge="1" parent="1" target="EjdUyEd99-lyi4bKZ8Xp-101">
          <mxGeometry relative="1" as="geometry">
            <mxPoint x="1550" y="384.5" as="targetPoint" />
            <mxPoint x="1388" y="384.45000000000005" as="sourcePoint" />
            <Array as="points">
              <mxPoint x="2462" y="385" />
            </Array>
          </mxGeometry>
        </mxCell>
        <mxCell id="EjdUyEd99-lyi4bKZ8Xp-9" value="new_label_valid" style="text;html=1;align=center;verticalAlign=middle;resizable=0;points=[];autosize=1;strokeColor=none;fillColor=none;" vertex="1" parent="1">
          <mxGeometry x="1411" y="350" width="110" height="30" as="geometry" />
        </mxCell>
        <mxCell id="EjdUyEd99-lyi4bKZ8Xp-10" value="" style="edgeStyle=orthogonalEdgeStyle;rounded=0;orthogonalLoop=1;jettySize=auto;html=1;strokeWidth=3;entryX=0.297;entryY=0.003;entryDx=0;entryDy=0;entryPerimeter=0;" edge="1" parent="1" target="EjdUyEd99-lyi4bKZ8Xp-101">
          <mxGeometry relative="1" as="geometry">
            <mxPoint x="1550" y="435.5" as="targetPoint" />
            <mxPoint x="1388" y="435.45000000000005" as="sourcePoint" />
            <Array as="points">
              <mxPoint x="2321" y="436" />
            </Array>
          </mxGeometry>
        </mxCell>
        <mxCell id="EjdUyEd99-lyi4bKZ8Xp-11" value="[5:0]new_label_value" style="text;html=1;align=center;verticalAlign=middle;resizable=0;points=[];autosize=1;strokeColor=none;fillColor=none;" vertex="1" parent="1">
          <mxGeometry x="1396" y="401" width="140" height="30" as="geometry" />
        </mxCell>
        <mxCell id="EjdUyEd99-lyi4bKZ8Xp-12" value="" style="edgeStyle=orthogonalEdgeStyle;rounded=0;orthogonalLoop=1;jettySize=auto;html=1;strokeWidth=3;" edge="1" parent="1">
          <mxGeometry relative="1" as="geometry">
            <mxPoint x="1755" y="486" as="targetPoint" />
            <mxPoint x="1385" y="485.45000000000005" as="sourcePoint" />
            <Array as="points">
              <mxPoint x="1434" y="485.4499999999996" />
            </Array>
          </mxGeometry>
        </mxCell>
        <mxCell id="EjdUyEd99-lyi4bKZ8Xp-13" value="merge_labels" style="text;html=1;align=center;verticalAlign=middle;resizable=0;points=[];autosize=1;strokeColor=none;fillColor=none;" vertex="1" parent="1">
          <mxGeometry x="1413" y="451" width="100" height="30" as="geometry" />
        </mxCell>
        <mxCell id="EjdUyEd99-lyi4bKZ8Xp-15" value="[5:0]merge_a" style="text;html=1;align=center;verticalAlign=middle;resizable=0;points=[];autosize=1;strokeColor=none;fillColor=none;" vertex="1" parent="1">
          <mxGeometry x="1419.5" y="490" width="90" height="30" as="geometry" />
        </mxCell>
        <mxCell id="EjdUyEd99-lyi4bKZ8Xp-17" value="[5:0]merge_b" style="text;html=1;align=center;verticalAlign=middle;resizable=0;points=[];autosize=1;strokeColor=none;fillColor=none;" vertex="1" parent="1">
          <mxGeometry x="1419.5" y="525" width="90" height="30" as="geometry" />
        </mxCell>
        <mxCell id="EjdUyEd99-lyi4bKZ8Xp-20" value="&lt;span style=&quot;font-size: 24px;&quot;&gt;Lable Merger&lt;/span&gt;" style="rounded=0;whiteSpace=wrap;html=1;" vertex="1" parent="1">
          <mxGeometry x="1755" y="456.52" width="310" height="240" as="geometry" />
        </mxCell>
        <mxCell id="EjdUyEd99-lyi4bKZ8Xp-22" value="merge_valid" style="text;html=1;align=center;verticalAlign=middle;resizable=0;points=[];autosize=1;strokeColor=none;fillColor=none;" vertex="1" parent="1">
          <mxGeometry x="1627" y="451" width="90" height="30" as="geometry" />
        </mxCell>
        <mxCell id="EjdUyEd99-lyi4bKZ8Xp-32" value="[5:0]resolved_label" style="text;html=1;align=center;verticalAlign=middle;resizable=0;points=[];autosize=1;strokeColor=none;fillColor=none;" vertex="1" parent="1">
          <mxGeometry x="2080" y="555" width="120" height="30" as="geometry" />
        </mxCell>
        <mxCell id="EjdUyEd99-lyi4bKZ8Xp-55" value="resolve_valid" style="text;html=1;align=center;verticalAlign=middle;resizable=0;points=[];autosize=1;strokeColor=none;fillColor=none;" vertex="1" parent="1">
          <mxGeometry x="1624" y="609.88" width="90" height="30" as="geometry" />
        </mxCell>
        <mxCell id="EjdUyEd99-lyi4bKZ8Xp-56" value="" style="edgeStyle=orthogonalEdgeStyle;rounded=0;orthogonalLoop=1;jettySize=auto;html=1;strokeWidth=3;" edge="1" parent="1">
          <mxGeometry relative="1" as="geometry">
            <mxPoint x="1756" y="642.38" as="targetPoint" />
            <mxPoint x="1594" y="642.33" as="sourcePoint" />
            <Array as="points">
              <mxPoint x="1643" y="642.3299999999996" />
            </Array>
          </mxGeometry>
        </mxCell>
        <mxCell id="EjdUyEd99-lyi4bKZ8Xp-57" value="[5:0]resolve_label" style="text;html=1;align=center;verticalAlign=middle;resizable=0;points=[];autosize=1;strokeColor=none;fillColor=none;" vertex="1" parent="1">
          <mxGeometry x="1612" y="560" width="120" height="30" as="geometry" />
        </mxCell>
        <mxCell id="EjdUyEd99-lyi4bKZ8Xp-61" value="[5:0]current_label" style="text;html=1;align=center;verticalAlign=middle;resizable=0;points=[];autosize=1;strokeColor=none;fillColor=none;" vertex="1" parent="1">
          <mxGeometry x="1385" y="560" width="120" height="30" as="geometry" />
        </mxCell>
        <mxCell id="EjdUyEd99-lyi4bKZ8Xp-62" value="" style="edgeStyle=orthogonalEdgeStyle;rounded=0;orthogonalLoop=1;jettySize=auto;html=1;strokeWidth=3;" edge="1" parent="1">
          <mxGeometry relative="1" as="geometry">
            <mxPoint x="1755" y="520.55" as="targetPoint" />
            <mxPoint x="1385" y="520" as="sourcePoint" />
            <Array as="points">
              <mxPoint x="1434" y="519.9999999999995" />
            </Array>
          </mxGeometry>
        </mxCell>
        <mxCell id="EjdUyEd99-lyi4bKZ8Xp-63" value="" style="edgeStyle=orthogonalEdgeStyle;rounded=0;orthogonalLoop=1;jettySize=auto;html=1;strokeWidth=3;" edge="1" parent="1">
          <mxGeometry relative="1" as="geometry">
            <mxPoint x="1755" y="554.55" as="targetPoint" />
            <mxPoint x="1385" y="554" as="sourcePoint" />
            <Array as="points">
              <mxPoint x="1434" y="553.9999999999995" />
            </Array>
          </mxGeometry>
        </mxCell>
        <mxCell id="EjdUyEd99-lyi4bKZ8Xp-64" value="" style="edgeStyle=orthogonalEdgeStyle;rounded=0;orthogonalLoop=1;jettySize=auto;html=1;strokeWidth=3;" edge="1" parent="1">
          <mxGeometry relative="1" as="geometry">
            <mxPoint x="1755" y="590.55" as="targetPoint" />
            <mxPoint x="1385" y="590" as="sourcePoint" />
            <Array as="points">
              <mxPoint x="1434" y="589.9999999999995" />
            </Array>
          </mxGeometry>
        </mxCell>
        <mxCell id="EjdUyEd99-lyi4bKZ8Xp-97" value="" style="edgeStyle=orthogonalEdgeStyle;rounded=0;orthogonalLoop=1;jettySize=auto;html=1;strokeWidth=3;" edge="1" parent="1">
          <mxGeometry relative="1" as="geometry">
            <mxPoint x="2230" y="810.05" as="targetPoint" />
            <mxPoint x="758" y="810" as="sourcePoint" />
            <Array as="points">
              <mxPoint x="2117" y="809.9999999999995" />
            </Array>
          </mxGeometry>
        </mxCell>
        <mxCell id="EjdUyEd99-lyi4bKZ8Xp-99" value="last_in_frame" style="text;html=1;align=center;verticalAlign=middle;resizable=0;points=[];autosize=1;strokeColor=none;fillColor=none;" vertex="1" parent="1">
          <mxGeometry x="750" y="781.64" width="100" height="30" as="geometry" />
        </mxCell>
        <mxCell id="EjdUyEd99-lyi4bKZ8Xp-100" value="" style="edgeStyle=orthogonalEdgeStyle;rounded=0;orthogonalLoop=1;jettySize=auto;html=1;strokeWidth=3;" edge="1" parent="1">
          <mxGeometry relative="1" as="geometry">
            <mxPoint x="2227" y="583.38" as="targetPoint" />
            <mxPoint x="2065" y="583.33" as="sourcePoint" />
            <Array as="points">
              <mxPoint x="2114" y="583.3299999999996" />
            </Array>
          </mxGeometry>
        </mxCell>
        <mxCell id="EjdUyEd99-lyi4bKZ8Xp-101" value="&lt;span style=&quot;font-size: 24px;&quot;&gt;Min-Max registers&lt;/span&gt;" style="rounded=0;whiteSpace=wrap;html=1;" vertex="1" parent="1">
          <mxGeometry x="2229" y="555" width="310" height="285" as="geometry" />
        </mxCell>
        <mxCell id="EjdUyEd99-lyi4bKZ8Xp-102" value="&lt;span style=&quot;font-size: 24px;&quot;&gt;Track&lt;/span&gt;&lt;div&gt;&lt;span style=&quot;font-size: 24px;&quot;&gt;X &amp;amp; Y&lt;/span&gt;&lt;/div&gt;" style="rounded=0;whiteSpace=wrap;html=1;" vertex="1" parent="1">
          <mxGeometry x="1060" y="696.52" width="165" height="85.12" as="geometry" />
        </mxCell>
        <mxCell id="EjdUyEd99-lyi4bKZ8Xp-104" value="" style="edgeStyle=orthogonalEdgeStyle;rounded=0;orthogonalLoop=1;jettySize=auto;html=1;strokeWidth=3;" edge="1" parent="1">
          <mxGeometry relative="1" as="geometry">
            <mxPoint x="2227" y="750.9999999999999" as="targetPoint" />
            <mxPoint x="1225" y="751.54" as="sourcePoint" />
            <Array as="points">
              <mxPoint x="1274" y="751.5399999999995" />
            </Array>
          </mxGeometry>
        </mxCell>
        <mxCell id="EjdUyEd99-lyi4bKZ8Xp-105" value="" style="endArrow=classic;html=1;rounded=0;exitX=0.425;exitY=0;exitDx=0;exitDy=0;exitPerimeter=0;strokeWidth=3;" edge="1" parent="1" source="EjdUyEd99-lyi4bKZ8Xp-102">
          <mxGeometry width="50" height="50" relative="1" as="geometry">
            <mxPoint x="1130" y="690" as="sourcePoint" />
            <mxPoint x="1130" y="640" as="targetPoint" />
          </mxGeometry>
        </mxCell>
        <mxCell id="EjdUyEd99-lyi4bKZ8Xp-106" value="" style="endArrow=classic;html=1;rounded=0;exitX=0.425;exitY=0;exitDx=0;exitDy=0;exitPerimeter=0;strokeWidth=3;" edge="1" parent="1">
          <mxGeometry width="50" height="50" relative="1" as="geometry">
            <mxPoint x="1180" y="697" as="sourcePoint" />
            <mxPoint x="1180" y="640" as="targetPoint" />
          </mxGeometry>
        </mxCell>
        <mxCell id="EjdUyEd99-lyi4bKZ8Xp-107" value="enable &amp;amp; motion" style="text;html=1;align=center;verticalAlign=middle;resizable=0;points=[];autosize=1;strokeColor=none;fillColor=none;" vertex="1" parent="1">
          <mxGeometry x="1484" y="625" width="110" height="30" as="geometry" />
        </mxCell>
        <mxCell id="EjdUyEd99-lyi4bKZ8Xp-108" value="" style="edgeStyle=orthogonalEdgeStyle;rounded=0;orthogonalLoop=1;jettySize=auto;html=1;strokeWidth=3;" edge="1" parent="1">
          <mxGeometry relative="1" as="geometry">
            <mxPoint x="1150" y="780" as="targetPoint" />
            <mxPoint x="1150" y="810" as="sourcePoint" />
          </mxGeometry>
        </mxCell>
        <mxCell id="EjdUyEd99-lyi4bKZ8Xp-109" value="" style="edgeStyle=orthogonalEdgeStyle;rounded=0;orthogonalLoop=1;jettySize=auto;html=1;strokeWidth=3;" edge="1" parent="1">
          <mxGeometry relative="1" as="geometry">
            <mxPoint x="1060" y="753.3399999999999" as="targetPoint" />
            <mxPoint x="760" y="753" as="sourcePoint" />
            <Array as="points">
              <mxPoint x="947" y="753.2899999999995" />
            </Array>
          </mxGeometry>
        </mxCell>
        <mxCell id="EjdUyEd99-lyi4bKZ8Xp-110" value="" style="edgeStyle=orthogonalEdgeStyle;rounded=0;orthogonalLoop=1;jettySize=auto;html=1;strokeWidth=3;" edge="1" parent="1">
          <mxGeometry relative="1" as="geometry">
            <mxPoint x="1060" y="720.1099999999999" as="targetPoint" />
            <mxPoint x="760" y="720" as="sourcePoint" />
            <Array as="points">
              <mxPoint x="947" y="720.0599999999995" />
            </Array>
          </mxGeometry>
        </mxCell>
        <mxCell id="EjdUyEd99-lyi4bKZ8Xp-111" value="" style="swimlane;startSize=0;" vertex="1" parent="1">
          <mxGeometry x="940" y="250" width="1620" height="700" as="geometry" />
        </mxCell>
        <mxCell id="EjdUyEd99-lyi4bKZ8Xp-112" value="&lt;font style=&quot;font-size: 42px;&quot; face=&quot;Times New Roman&quot;&gt;&lt;span style=&quot;text-wrap-mode: wrap;&quot;&gt;Bounding Box&amp;nbsp;&lt;/span&gt;&lt;span style=&quot;text-wrap-mode: wrap; background-color: transparent; color: light-dark(rgb(0, 0, 0), rgb(255, 255, 255));&quot;&gt;Generator&lt;/span&gt;&lt;/font&gt;" style="text;html=1;align=center;verticalAlign=middle;resizable=0;points=[];autosize=1;strokeColor=none;fillColor=none;" vertex="1" parent="EjdUyEd99-lyi4bKZ8Xp-111">
          <mxGeometry x="-22.5" y="20" width="450" height="60" as="geometry" />
        </mxCell>
      </root>
    </mxGraphModel>
  </diagram>
</mxfile>
